# xmcd
#
# Track frame offsets: 
#        150
#        14132
#        26642
#        39807
#        49917
#        59275
#        70770
#        86910
#        96097
#        107512
#        121102
#        130235
#        140072
#        158142
#        166337
#        181225
#        190427
#        203622
#        213260
#        225032
#        237950
#        256802
#        269705
#        278702
#        290145
#        296522
#
# Disc length: 4084 seconds
#
# Revision: 2
# Processed by: cddbd v1.5.2PL0 Copyright (c) Steve Scherf et al.
# Submitted via: ExactAudioCopy v1.3
#
DISCID=7b0ff21a
DTITLE=Pete Wernick, Tony Trischka, Russ Barenberg, John Miller, Lou M
DTITLE=artin, Ken Kosek, Andy Statman - Country Cooking - 26 Bluegrass
DTITLE=Instrumentals
DYEAR=1900
DGENRE=Bluegrass
TTITLE0=Big Ben
TTITLE1=Shot From Guns
TTITLE2=Cedar Hill
TTITLE3=Armadillo Breakdown
TTITLE4=Trouble Among The Yearlings
TTITLE5=Powwow The Indian Boy
TTITLE6=The Old Old House
TTITLE7=Pacific Slope
TTITLE8=Orange Mountain Special
TTITLE9=Farewell Blues
TTITLE10=Jaybird, Fiddler A Dram
TTITLE11=Theme Time
TTITLE12=Huckling The Berries
TTITLE13=U.S. 40
TTITLE14=The Parson's Duck
TTITLE15=Six Mile Creek
TTITLE16=Tequila Mockingbird
TTITLE17=Morning Glory
TTITLE18=Wagons Ho
TTITLE19=Barrel Of Fun
TTITLE20=Plumber's Nightmare
TTITLE21=Kentucky Bullfight
TTITLE22=Silver Bell
TTITLE23=Babka Breakdown
TTITLE24=Celebration Reel
TTITLE25=Western Mind
EXTD=
EXTT0=Author: Burchfield
EXTT1=Author:  Stuart
EXTT2=Author:  Grisman
EXTT3=Author: Wernick
EXTT4=Author:  Trad.
EXTT5=Author:  Wernick/Applebaum
EXTT6=Author:  Bynum/Jones
EXTT7=Author:  Trad.
EXTT8=Author:  Wernick/Miller
EXTT9=Author:  Schoebel/Mares Roppolo
EXTT10=Author:  Trad.
EXTT11=Author:  Bill Emerson/Jimmy Martin
EXTT12=Author:  Wernick
EXTT13=Author:  Kosek
EXTT14=Author:  Trischka
EXTT15=Author:  Barenberg
EXTT16=Author:  Wernick
EXTT17=Author:  Barenberg
EXTT18=Author:  Miller
EXTT19=Author:  Wernick
EXTT20=Author:  Statman
EXTT21=Author:  Trischka
EXTT22=Author:  Trad.
EXTT23=Author:  Wernick
EXTT24=Author:  Trischka
EXTT25=Author: Wernick/Trischka
PLAYORDER=
